<svg width="100%" height="100%" viewBox="0 0 601 665" fill="none" xmlns="http://www.w3.org/2000/svg">
<path d="M138.925 664.375C215.651 664.375 277.849 602.176 277.849 525.451C277.849 448.725 215.651 386.526 138.925 386.526C62.1987 386.526 0 448.725 0 525.451C0 602.176 62.1987 664.375 138.925 664.375Z" fill="#F2F2F2"/>
<path d="M306.979 587.071C239.068 587.071 173.258 563.524 120.761 520.442C68.2655 477.36 32.3316 417.408 19.0827 350.802C5.83376 284.196 16.0895 215.057 48.1024 155.164C80.1152 95.2721 131.905 48.3328 194.646 22.3443C257.388 -3.64421 327.199 -7.07394 392.186 12.6395C457.173 32.3529 513.314 73.9898 551.043 130.456C588.773 186.922 605.756 254.723 599.099 322.307C592.443 389.891 562.559 453.076 514.538 501.096C487.345 528.439 454.998 550.116 419.37 564.874C383.743 579.631 345.542 587.176 306.979 587.071V587.071ZM306.979 2.24222C146.359 2.24222 15.685 132.916 15.685 293.536C15.685 454.156 146.359 584.83 306.979 584.83C467.598 584.83 598.272 454.156 598.272 293.536C598.272 132.916 467.598 2.24222 306.979 2.24222V2.24222Z" fill="#2F2E41"/>
<path d="M459.908 386.445L459.875 386.461L315.201 467.021L156.779 387.81L154.049 386.445L162.271 222.005L305.334 120.052L306.913 121.039L454.975 213.783L459.908 386.445Z" fill="#79A3B1"/>
<path opacity="0.3" d="M459.875 386.462L315.201 467.021L156.779 387.81L297.112 289.426L459.875 386.462Z" fill="black"/>
<path opacity="0.1" d="M459.908 386.445L297.112 289.426L306.913 121.039L454.975 213.783L459.908 386.445Z" fill="black"/>
<path d="M160.165 272.746L159.361 271.608L304.021 169.501L456.834 265.31L456.094 266.491L304.066 171.174L160.165 272.746Z" fill="#F2F2F2"/>
<path d="M157.361 328.611L156.579 327.459L300.505 229.744L300.882 229.958L456.963 318.418L456.275 319.63L300.571 231.383L157.361 328.611Z" fill="#F2F2F2"/>
<path d="M212.276 415.966L211.542 414.782L356.595 324.901V152.595H357.988V325.677L212.276 415.966Z" fill="#F2F2F2"/>
<path d="M269.209 444.429L268.469 443.249L408.138 355.646V184.88H409.531V356.417L269.209 444.429Z" fill="#F2F2F2"/>
<path d="M407.612 415.983L245.176 325.731L245.199 325.297L253.75 156.282L255.141 156.353L246.612 324.934L408.289 414.765L407.612 415.983Z" fill="#F2F2F2"/>
<path d="M356.507 444.456L195.895 360.289L195.92 359.842L205.388 190.743L206.779 190.821L197.337 359.472L357.154 443.222L356.507 444.456Z" fill="#F2F2F2"/>
<path d="M487.357 119.88C518.294 119.88 543.375 94.8001 543.375 63.8622C543.375 32.9244 518.294 7.84424 487.357 7.84424C456.419 7.84424 431.339 32.9244 431.339 63.8622C431.339 94.8001 456.419 119.88 487.357 119.88Z" fill="#3F3D56"/>
</svg>
